<svg version="1.1" id="Layer_1" xmlns="http://www.w3.org/2000/svg" xmlns:xlink="http://www.w3.org/1999/xlink" x="0px" y="0px"
	 width="100%" viewBox="0 0 2000 1500" enable-background="new 0 0 2000 1500" xml:space="preserve">
<path fill="#7F0909" opacity="1.000000" stroke="none" 
	d="
M1389.000000,1501.000000 
	C926.000122,1501.000000 463.500275,1501.000000 1.000310,1501.000000 
	C1.000207,1001.000305 1.000207,501.000580 1.000103,1.000646 
	C667.666199,1.000430 1334.332397,1.000430 2000.998901,1.000215 
	C2000.999268,500.999359 2000.999268,1000.998718 2000.999634,1500.999023 
	C1797.166626,1501.000000 1593.333374,1501.000000 1389.000000,1501.000000 
M563.007019,995.181030 
	C564.595032,1010.649109 572.311096,1019.226013 587.250549,1022.101074 
	C601.079834,1024.762451 614.611206,1023.358398 628.088928,1019.571472 
	C633.142334,1018.151672 635.145264,1016.039978 635.122986,1010.361572 
	C634.878906,947.871521 634.982239,885.380066 634.936340,822.889038 
	C634.933838,819.447327 634.816162,816.918884 639.708740,816.941162 
	C676.202698,817.107910 712.697998,816.967773 749.192017,817.128174 
	C751.126038,817.136597 753.753479,818.490417 754.880005,820.062195 
	C791.143433,870.660767 827.123596,921.462646 863.489868,971.986694 
	C873.671936,986.132751 883.927979,1000.458862 895.909546,1013.024780 
	C917.035339,1035.181030 954.037842,1025.887451 963.770020,996.740234 
	C964.404846,994.838989 963.860352,991.746704 962.638672,990.141174 
	C940.777344,961.413757 918.831116,932.749329 896.685791,904.240112 
	C875.971680,877.573486 855.002014,851.105225 834.148010,824.547241 
	C829.793457,819.001648 825.453003,813.445068 820.796631,807.498474 
	C822.908630,806.704163 824.304993,806.222656 825.667786,805.659912 
	C839.181824,800.078186 853.215698,795.479431 866.092468,788.687439 
	C894.119995,773.904114 915.566833,752.018005 929.129578,723.277588 
	C947.655090,684.020752 950.091797,642.785645 940.647827,600.934448 
	C930.005920,553.774963 901.441833,520.425171 858.163452,499.776276 
	C823.799255,483.380493 786.818054,477.650818 749.200134,476.221771 
	C729.267517,475.464569 709.223511,475.964996 689.299438,477.109802 
	C667.601990,478.356537 645.910706,480.435883 624.358643,483.242126 
	C609.390076,485.191132 594.515503,488.451050 580.703308,495.122681 
	C568.695068,500.922852 562.928284,510.385376 562.934814,523.812866 
	C563.011719,680.623718 562.992798,837.434631 563.007019,995.181030 
M1164.717651,1119.790283 
	C1175.922607,1135.517334 1186.719116,1151.557983 1198.469360,1166.866455 
	C1206.958252,1177.926147 1216.283569,1188.432251 1226.010132,1198.432129 
	C1239.428467,1212.227661 1256.106079,1218.376343 1275.533936,1218.109985 
	C1305.652222,1217.696899 1333.644897,1196.773193 1342.081421,1167.707153 
	C1342.994263,1164.562378 1342.863403,1162.271240 1340.746582,1159.532104 
	C1316.817749,1128.569336 1292.998535,1097.521240 1269.290039,1066.389282 
	C1267.423340,1063.938232 1265.699341,1063.545776 1262.993408,1064.185913 
	C1247.246582,1067.912231 1231.322021,1068.502563 1215.386108,1065.892822 
	C1196.367798,1062.778320 1179.999146,1054.629639 1167.750244,1039.270264 
	C1157.394775,1026.285278 1152.476196,1011.230713 1152.201050,994.867676 
	C1151.783936,970.046814 1152.115967,945.213928 1151.889160,920.388367 
	C1151.865723,917.838257 1150.788452,914.850098 1149.216797,912.830872 
	C1133.055054,892.068909 1116.687256,871.467407 1100.390381,850.810486 
	C1099.519531,849.706726 1098.768799,848.508301 1098.308228,847.849304 
	C1114.984619,841.617004 1131.435059,835.401001 1147.949097,829.358276 
	C1151.035034,828.229065 1152.115479,826.702454 1152.103760,823.265015 
	C1151.956055,779.941956 1152.008911,736.618164 1151.995605,693.294617 
	C1151.995239,692.073608 1151.830078,690.852600 1151.701538,689.075623 
	C1124.415894,721.204834 1089.551514,739.530457 1050.300537,750.453369 
	C1021.580444,758.445862 992.189514,761.794739 962.443604,762.150879 
	C958.850098,762.193909 956.795593,763.355835 954.817078,766.328857 
	C944.500854,781.830750 932.056030,795.482910 917.404236,806.968689 
	C908.972168,813.578674 900.029175,819.536865 891.206116,825.867371 
	C900.505066,837.766052 909.761230,849.762329 919.260803,861.562561 
	C920.379456,862.952087 922.833130,863.962646 924.671814,863.968750 
	C942.332214,864.027161 959.995361,863.938599 977.652649,863.612488 
	C980.885254,863.552795 982.735535,864.461060 984.593201,867.071533 
	C1044.433350,951.160217 1104.355713,1035.190552 1164.717651,1119.790283 
M806.906921,289.435852 
	C792.884521,291.296509 778.806946,292.818512 764.852234,295.094360 
	C741.860596,298.844086 719.030090,303.472137 697.229858,311.993469 
	C670.075195,322.607727 659.071106,337.672028 658.820740,364.741608 
	C658.614258,387.070160 658.772156,409.402161 658.793640,431.732605 
	C658.794495,432.682770 659.047607,433.632660 659.199463,434.696381 
	C699.435852,431.482269 739.443115,430.445343 779.965576,434.340607 
	C779.965576,421.734650 779.965576,409.821625 779.965576,397.850037 
	C781.534302,397.503693 782.650635,397.213196 783.782959,397.013702 
	C817.442932,391.082550 851.345520,387.401703 885.480408,385.619812 
	C933.351196,383.120819 981.076843,383.270386 1028.272461,393.072632 
	C1065.862305,400.879761 1100.947144,414.431519 1131.121826,438.987762 
	C1132.854736,440.398010 1135.587769,441.227570 1137.858154,441.233765 
	C1184.685059,441.361084 1231.512573,441.331573 1278.339844,441.318665 
	C1279.611206,441.318329 1280.882568,441.156769 1283.314453,440.991547 
	C1278.420776,432.478577 1274.222534,424.405518 1269.325439,416.781342 
	C1238.244873,368.394104 1194.547974,335.734070 1141.477783,314.932831 
	C1084.123169,292.452301 1024.080078,284.588074 963.026550,283.103912 
	C911.181641,281.843536 859.412964,283.912445 806.906921,289.435852 
M1427.464355,541.078430 
	C1433.123901,536.282898 1436.712769,530.368164 1438.133789,522.973511 
	C1440.148193,512.490051 1438.795654,502.472076 1435.042725,492.617767 
	C1432.306396,485.432526 1431.878662,485.066223 1424.221191,485.066193 
	C1301.228516,485.065582 1178.235718,485.065735 1055.243042,485.066681 
	C1053.576538,485.066711 1051.906738,485.014252 1050.243896,485.095917 
	C1036.772461,485.757385 1027.978516,492.828247 1025.064453,505.883698 
	C1022.403870,517.802856 1024.166992,529.272766 1029.024170,540.483032 
	C1030.831665,544.654480 1033.060425,546.107727 1037.604980,546.093262 
	C1087.601440,545.934143 1137.598633,545.979004 1187.595703,546.006226 
	C1196.961670,546.011353 1195.982910,544.953979 1195.984009,554.164001 
	C1196.001221,700.155334 1195.992798,846.146729 1196.006226,992.138062 
	C1196.007812,1008.933777 1204.247070,1018.884399 1220.727051,1022.182190 
	C1234.073120,1024.852783 1247.107178,1023.025818 1260.139526,1019.843140 
	C1265.317749,1018.578491 1267.156006,1016.339905 1267.149170,1010.692993 
	C1266.965332,858.035645 1267.002441,705.377930 1267.004272,552.720337 
	C1267.004395,546.000610 1267.012573,545.994690 1273.845581,545.994263 
	C1319.509521,545.991394 1365.174683,546.137024 1410.836060,545.795410 
	C1416.207153,545.755188 1421.558105,543.042236 1427.464355,541.078430 
M750.787964,889.723511 
	C745.270813,882.005005 739.549316,874.421509 734.322388,866.511230 
	C731.696411,862.537170 728.925964,860.720154 723.894775,860.930237 
	C712.585571,861.402649 701.243103,861.078430 689.914185,861.078430 
	C686.309204,861.078430 682.704163,861.078430 678.838562,861.078430 
	C678.838562,863.512146 678.838562,865.327332 678.838562,867.142517 
	C678.838501,916.623230 678.844482,966.104004 678.834778,1015.584717 
	C678.831787,1030.652588 673.305969,1043.078369 661.312988,1052.510010 
	C660.082153,1053.478149 658.884705,1055.402222 658.882202,1056.884766 
	C658.821167,1093.702515 658.479431,1130.528564 659.162292,1167.335205 
	C659.574768,1189.563721 671.703003,1204.815063 692.927917,1210.995850 
	C722.925964,1219.731689 752.165710,1214.859985 780.986267,1204.853149 
	C781.061707,1203.949585 781.164490,1203.293335 781.164551,1202.636963 
	C781.173096,1113.671631 781.189209,1024.706299 781.084167,935.741089 
	C781.081665,933.614075 780.159424,931.182007 778.922729,929.411438 
	C769.773804,916.312134 760.436096,903.344604 750.787964,889.723511 
z"/>
<path fill="#CD0404" opacity="1.000000" stroke="none" 
	d="
M563.003174,994.713257 
	C562.992798,837.434631 563.011719,680.623718 562.934814,523.812866 
	C562.928284,510.385376 568.695068,500.922852 580.703308,495.122681 
	C594.515503,488.451050 609.390076,485.191132 624.358643,483.242126 
	C645.910706,480.435883 667.601990,478.356537 689.299438,477.109802 
	C709.223511,475.964996 729.267517,475.464569 749.200134,476.221771 
	C786.818054,477.650818 823.799255,483.380493 858.163452,499.776276 
	C901.441833,520.425171 930.005920,553.774963 940.647827,600.934448 
	C950.091797,642.785645 947.655090,684.020752 929.129578,723.277588 
	C915.566833,752.018005 894.119995,773.904114 866.092468,788.687439 
	C853.215698,795.479431 839.181824,800.078186 825.667786,805.659912 
	C824.304993,806.222656 822.908630,806.704163 820.796631,807.498474 
	C825.453003,813.445068 829.793457,819.001648 834.148010,824.547241 
	C855.002014,851.105225 875.971680,877.573486 896.685791,904.240112 
	C918.831116,932.749329 940.777344,961.413757 962.638672,990.141174 
	C963.860352,991.746704 964.404846,994.838989 963.770020,996.740234 
	C954.037842,1025.887451 917.035339,1035.181030 895.909546,1013.024780 
	C883.927979,1000.458862 873.671936,986.132751 863.489868,971.986694 
	C827.123596,921.462646 791.143433,870.660767 754.880005,820.062195 
	C753.753479,818.490417 751.126038,817.136597 749.192017,817.128174 
	C712.697998,816.967773 676.202698,817.107910 639.708740,816.941162 
	C634.816162,816.918884 634.933838,819.447327 634.936340,822.889038 
	C634.982239,885.380066 634.878906,947.871521 635.122986,1010.361572 
	C635.145264,1016.039978 633.142334,1018.151672 628.088928,1019.571472 
	C614.611206,1023.358398 601.079834,1024.762451 587.250549,1022.101074 
	C572.311096,1019.226013 564.595032,1010.649109 563.003174,994.713257 
M633.997009,594.500000 
	C633.997009,646.497314 633.996765,698.494629 633.997375,750.491943 
	C633.997437,757.901245 633.999878,757.951355 641.175293,757.897217 
	C675.651123,757.637207 710.126648,757.343079 744.602417,757.070374 
	C767.802246,756.886902 790.308167,753.007568 811.718018,743.894226 
	C838.921509,732.314758 859.098206,713.710754 868.062134,684.839600 
	C872.920105,669.193054 874.653076,653.120728 873.278381,636.585388 
	C872.131409,622.789612 869.460632,609.547119 863.479492,597.125732 
	C852.097656,573.488464 832.622070,558.861084 808.923889,549.140015 
	C792.785645,542.520203 775.875977,538.827209 758.616333,537.197144 
	C744.731567,535.885925 730.737915,535.311768 716.788147,535.236328 
	C705.675232,535.176147 694.521423,536.009949 683.447205,537.081238 
	C668.413574,538.535706 653.440857,540.615723 638.436401,542.379822 
	C634.988525,542.785156 633.860046,544.441711 633.908875,548.003479 
	C634.116760,563.166504 633.997070,578.334106 633.997009,594.500000 
z"/>
<path fill="#FBFAFA" opacity="1.000000" stroke="none" 
	d="
M1164.491699,1119.510010 
	C1104.355713,1035.190552 1044.433350,951.160217 984.593201,867.071533 
	C982.735535,864.461060 980.885254,863.552795 977.652649,863.612488 
	C959.995361,863.938599 942.332214,864.027161 924.671814,863.968750 
	C922.833130,863.962646 920.379456,862.952087 919.260803,861.562561 
	C909.761230,849.762329 900.505066,837.766052 891.206116,825.867371 
	C900.029175,819.536865 908.972168,813.578674 917.404236,806.968689 
	C932.056030,795.482910 944.500854,781.830750 954.817078,766.328857 
	C956.795593,763.355835 958.850098,762.193909 962.443604,762.150879 
	C992.189514,761.794739 1021.580444,758.445862 1050.300537,750.453369 
	C1089.551514,739.530457 1124.415894,721.204834 1151.701538,689.075623 
	C1151.830078,690.852600 1151.995239,692.073608 1151.995605,693.294617 
	C1152.008911,736.618164 1151.956055,779.941956 1152.103760,823.265015 
	C1152.115479,826.702454 1151.035034,828.229065 1147.949097,829.358276 
	C1131.435059,835.401001 1114.984619,841.617004 1098.308228,847.849304 
	C1098.768799,848.508301 1099.519531,849.706726 1100.390381,850.810486 
	C1116.687256,871.467407 1133.055054,892.068909 1149.216797,912.830872 
	C1150.788452,914.850098 1151.865723,917.838257 1151.889160,920.388367 
	C1152.115967,945.213928 1151.783936,970.046814 1152.201050,994.867676 
	C1152.476196,1011.230713 1157.394775,1026.285278 1167.750244,1039.270264 
	C1179.999146,1054.629639 1196.367798,1062.778320 1215.386108,1065.892822 
	C1231.322021,1068.502563 1247.246582,1067.912231 1262.993408,1064.185913 
	C1265.699341,1063.545776 1267.423340,1063.938232 1269.290039,1066.389282 
	C1292.998535,1097.521240 1316.817749,1128.569336 1340.746582,1159.532104 
	C1342.863403,1162.271240 1342.994263,1164.562378 1342.081421,1167.707153 
	C1333.644897,1196.773193 1305.652222,1217.696899 1275.533936,1218.109985 
	C1256.106079,1218.376343 1239.428467,1212.227661 1226.010132,1198.432129 
	C1216.283569,1188.432251 1206.958252,1177.926147 1198.469360,1166.866455 
	C1186.719116,1151.557983 1175.922607,1135.517334 1164.491699,1119.510010 
z"/>
<path fill="#FBFAFA" opacity="1.000000" stroke="none" 
	d="
M807.355957,289.367065 
	C859.412964,283.912445 911.181641,281.843536 963.026550,283.103912 
	C1024.080078,284.588074 1084.123169,292.452301 1141.477783,314.932831 
	C1194.547974,335.734070 1238.244873,368.394104 1269.325439,416.781342 
	C1274.222534,424.405518 1278.420776,432.478577 1283.314453,440.991547 
	C1280.882568,441.156769 1279.611206,441.318329 1278.339844,441.318665 
	C1231.512573,441.331573 1184.685059,441.361084 1137.858154,441.233765 
	C1135.587769,441.227570 1132.854736,440.398010 1131.121826,438.987762 
	C1100.947144,414.431519 1065.862305,400.879761 1028.272461,393.072632 
	C981.076843,383.270386 933.351196,383.120819 885.480408,385.619812 
	C851.345520,387.401703 817.442932,391.082550 783.782959,397.013702 
	C782.650635,397.213196 781.534302,397.503693 779.965576,397.850037 
	C779.965576,409.821625 779.965576,421.734650 779.965576,434.340607 
	C739.443115,430.445343 699.435852,431.482269 659.199463,434.696381 
	C659.047607,433.632660 658.794495,432.682770 658.793640,431.732605 
	C658.772156,409.402161 658.614258,387.070160 658.820740,364.741608 
	C659.071106,337.672028 670.075195,322.607727 697.229858,311.993469 
	C719.030090,303.472137 741.860596,298.844086 764.852234,295.094360 
	C778.806946,292.818512 792.884521,291.296509 807.355957,289.367065 
z"/>
<path fill="#CD0404" opacity="1.000000" stroke="none" 
	d="
M1427.191406,541.323364 
	C1421.558105,543.042236 1416.207153,545.755188 1410.836060,545.795410 
	C1365.174683,546.137024 1319.509521,545.991394 1273.845581,545.994263 
	C1267.012573,545.994690 1267.004395,546.000610 1267.004272,552.720337 
	C1267.002441,705.377930 1266.965332,858.035645 1267.149170,1010.692993 
	C1267.156006,1016.339905 1265.317749,1018.578491 1260.139526,1019.843140 
	C1247.107178,1023.025818 1234.073120,1024.852783 1220.727051,1022.182190 
	C1204.247070,1018.884399 1196.007812,1008.933777 1196.006226,992.138062 
	C1195.992798,846.146729 1196.001221,700.155334 1195.984009,554.164001 
	C1195.982910,544.953979 1196.961670,546.011353 1187.595703,546.006226 
	C1137.598633,545.979004 1087.601440,545.934143 1037.604980,546.093262 
	C1033.060425,546.107727 1030.831665,544.654480 1029.024170,540.483032 
	C1024.166992,529.272766 1022.403870,517.802856 1025.064453,505.883698 
	C1027.978516,492.828247 1036.772461,485.757385 1050.243896,485.095917 
	C1051.906738,485.014252 1053.576538,485.066711 1055.243042,485.066681 
	C1178.235718,485.065735 1301.228516,485.065582 1424.221191,485.066193 
	C1431.878662,485.066223 1432.306396,485.432526 1435.042725,492.617767 
	C1438.795654,502.472076 1440.148193,512.490051 1438.133789,522.973511 
	C1436.712769,530.368164 1433.123901,536.282898 1427.191406,541.323364 
z"/>
<path fill="#FBFBFB" opacity="1.000000" stroke="none" 
	d="
M750.972839,890.029602 
	C760.436096,903.344604 769.773804,916.312134 778.922729,929.411438 
	C780.159424,931.182007 781.081665,933.614075 781.084167,935.741089 
	C781.189209,1024.706299 781.173096,1113.671631 781.164551,1202.636963 
	C781.164490,1203.293335 781.061707,1203.949585 780.986267,1204.853149 
	C752.165710,1214.859985 722.925964,1219.731689 692.927917,1210.995850 
	C671.703003,1204.815063 659.574768,1189.563721 659.162292,1167.335205 
	C658.479431,1130.528564 658.821167,1093.702515 658.882202,1056.884766 
	C658.884705,1055.402222 660.082153,1053.478149 661.312988,1052.510010 
	C673.305969,1043.078369 678.831787,1030.652588 678.834778,1015.584717 
	C678.844482,966.104004 678.838501,916.623230 678.838562,867.142517 
	C678.838562,865.327332 678.838562,863.512146 678.838562,861.078430 
	C682.704163,861.078430 686.309204,861.078430 689.914185,861.078430 
	C701.243103,861.078430 712.585571,861.402649 723.894775,860.930237 
	C728.925964,860.720154 731.696411,862.537170 734.322388,866.511230 
	C739.549316,874.421509 745.270813,882.005005 750.972839,890.029602 
z"/>
<path fill="#7F0909" opacity="1.000000" stroke="none" 
	d="
M633.996948,594.000000 
	C633.997070,578.334106 634.116760,563.166504 633.908875,548.003479 
	C633.860046,544.441711 634.988525,542.785156 638.436401,542.379822 
	C653.440857,540.615723 668.413574,538.535706 683.447205,537.081238 
	C694.521423,536.009949 705.675232,535.176147 716.788147,535.236328 
	C730.737915,535.311768 744.731567,535.885925 758.616333,537.197144 
	C775.875977,538.827209 792.785645,542.520203 808.923889,549.140015 
	C832.622070,558.861084 852.097656,573.488464 863.479492,597.125732 
	C869.460632,609.547119 872.131409,622.789612 873.278381,636.585388 
	C874.653076,653.120728 872.920105,669.193054 868.062134,684.839600 
	C859.098206,713.710754 838.921509,732.314758 811.718018,743.894226 
	C790.308167,753.007568 767.802246,756.886902 744.602417,757.070374 
	C710.126648,757.343079 675.651123,757.637207 641.175293,757.897217 
	C633.999878,757.951355 633.997437,757.901245 633.997375,750.491943 
	C633.996765,698.494629 633.997009,646.497314 633.996948,594.000000 
M707.499756,713.669312 
	C731.579834,713.485779 755.780823,714.920898 779.852173,708.443176 
	C779.852173,706.501282 779.852112,704.701599 779.852112,702.901917 
	C779.852173,665.910828 779.713684,628.918701 780.006287,591.929932 
	C780.048584,586.581177 778.285400,584.942322 773.411011,583.921509 
	C745.543030,578.085083 717.461304,578.716980 689.313904,580.557129 
	C685.571716,580.801819 681.838684,581.187622 678.260132,581.494446 
	C678.260132,625.846619 678.260132,669.582458 678.260132,713.669312 
	C687.891174,713.669312 697.195435,713.669312 707.499756,713.669312 
z"/>
<path fill="#FAFAFA" opacity="1.000000" stroke="none" 
	d="
M706.999756,713.669312 
	C697.195435,713.669312 687.891174,713.669312 678.260132,713.669312 
	C678.260132,669.582458 678.260132,625.846619 678.260132,581.494446 
	C681.838684,581.187622 685.571716,580.801819 689.313904,580.557129 
	C717.461304,578.716980 745.543030,578.085083 773.411011,583.921509 
	C778.285400,584.942322 780.048584,586.581177 780.006287,591.929932 
	C779.713684,628.918701 779.852173,665.910828 779.852112,702.901917 
	C779.852112,704.701599 779.852173,706.501282 779.852173,708.443176 
	C755.780823,714.920898 731.579834,713.485779 706.999756,713.669312 
z"/>
</svg>